<svg width="680" height="500" viewBox="0 0 680 500" xmlns="http://www.w3.org/2000/svg" role="img">
<title>EyeWatcher behaviour state timeline</title>
<desc>Timeline showing eye states from boot through waking, scanning, tracking, dozing and sleeping, with a scared interruption, and all adjustable time parameters labeled</desc>

<rect width="680" height="500" fill="#ffffff"/>

<defs>
<marker id="arr" viewBox="0 0 10 10" refX="8" refY="5" markerWidth="6" markerHeight="6" orient="auto-start-reverse">
<path d="M2 1L8 5L2 9" fill="none" stroke="#73726c" stroke-width="1.5" stroke-linecap="round" stroke-linejoin="round"/>
</marker>
<marker id="arrGreen" viewBox="0 0 10 10" refX="8" refY="5" markerWidth="6" markerHeight="6" orient="auto-start-reverse">
<path d="M2 1L8 5L2 9" fill="none" stroke="#63B522" stroke-width="1.5" stroke-linecap="round" stroke-linejoin="round"/>
</marker>
<marker id="arrCoral" viewBox="0 0 10 10" refX="8" refY="5" markerWidth="6" markerHeight="6" orient="auto-start-reverse">
<path d="M2 1L8 5L2 9" fill="none" stroke="#D85A30" stroke-width="1.5" stroke-linecap="round" stroke-linejoin="round"/>
</marker>
<marker id="arrAmber" viewBox="0 0 10 10" refX="8" refY="5" markerWidth="6" markerHeight="6" orient="auto-start-reverse">
<path d="M2 1L8 5L2 9" fill="none" stroke="#BA7517" stroke-width="1.5" stroke-linecap="round" stroke-linejoin="round"/>
</marker>
</defs>

<text x="340" y="28" text-anchor="middle" font-family="sans-serif" font-size="14" font-weight="500" fill="#2C2C2A">Behaviour timeline</text>
<text x="340" y="44" text-anchor="middle" font-family="sans-serif" font-size="12" fill="#888780">typical cycle from boot, showing all adjustable time parameters</text>

<text x="50" y="90" text-anchor="end" font-family="sans-serif" font-size="12" fill="#5F5E5A">arousal</text>
<text x="50" y="102" text-anchor="end" font-family="sans-serif" font-size="12" fill="#888780">lid open</text>

<text x="50" y="200" text-anchor="end" font-family="sans-serif" font-size="12" fill="#5F5E5A">state</text>

<rect x="58" y="64" width="600" height="60" rx="4" fill="#F1EFE8" stroke="#D3D1C7" stroke-width="0.5"/>
<line x1="58" y1="117" x2="658" y2="117" stroke="#D3D1C7" stroke-width="0.5" stroke-dasharray="3 2"/>
<text x="55" y="120" text-anchor="end" font-family="sans-serif" font-size="10" fill="#888780">0</text>
<text x="55" y="72" text-anchor="end" font-family="sans-serif" font-size="10" fill="#888780">1</text>

<path d="
  M 58 117
  L 78 117
  C 98 117 108 76 130 76
  L 200 78
  L 240 80
  C 260 80 270 66 280 66
  C 285 66 290 80 295 80
  L 340 80
  L 365 80
  C 380 80 388 100 400 100
  C 415 100 420 112 430 112
  C 440 112 445 117 455 117
  L 480 117
  C 498 117 508 117 520 117
  C 540 117 550 76 568 76
  L 640 78
  L 658 78
" fill="none" stroke="#7eb8f7" stroke-width="2"/>

<g>
  <rect x="58" y="160" width="22" height="36" rx="4" fill="#F1EFE8" stroke="#888780" stroke-width="0.5"/>
  <text x="69" y="180" text-anchor="middle" dominant-baseline="central" font-family="sans-serif" font-size="8" fill="#2C2C2A">SLEEP</text>
</g>

<g>
  <rect x="82" y="160" width="52" height="36" rx="4" fill="#FAEEDA" stroke="#854F0B" stroke-width="0.5"/>
  <text x="108" y="178" text-anchor="middle" dominant-baseline="central" font-family="sans-serif" font-size="12" fill="#412402">WAKING</text>
</g>

<g>
  <rect x="136" y="160" width="68" height="36" rx="4" fill="#E1F5EE" stroke="#0F6E56" stroke-width="0.5"/>
  <text x="170" y="178" text-anchor="middle" dominant-baseline="central" font-family="sans-serif" font-size="12" fill="#04342C">SCANNING</text>
</g>

<g>
  <rect x="206" y="160" width="100" height="36" rx="4" fill="#EAF3DE" stroke="#3B6D11" stroke-width="0.5"/>
  <text x="256" y="178" text-anchor="middle" dominant-baseline="central" font-family="sans-serif" font-size="12" fill="#173404">TRACKING</text>
</g>

<g>
  <rect x="308" y="160" width="60" height="36" rx="4" fill="#EEEDFE" stroke="#534AB7" stroke-width="0.5"/>
  <text x="338" y="178" text-anchor="middle" dominant-baseline="central" font-family="sans-serif" font-size="12" fill="#26215C">FOCUS</text>
</g>

<g>
  <rect x="370" y="160" width="62" height="36" rx="4" fill="#FAEEDA" stroke="#854F0B" stroke-width="0.5"/>
  <text x="401" y="178" text-anchor="middle" dominant-baseline="central" font-family="sans-serif" font-size="12" fill="#412402">DOZING</text>
</g>

<g>
  <rect x="434" y="160" width="46" height="36" rx="4" fill="#F1EFE8" stroke="#888780" stroke-width="0.5"/>
  <text x="457" y="178" text-anchor="middle" dominant-baseline="central" font-family="sans-serif" font-size="9" fill="#2C2C2A">SLEEP</text>
</g>

<g>
  <rect x="482" y="160" width="42" height="36" rx="4" fill="#FAECE7" stroke="#993C1D" stroke-width="0.5"/>
  <text x="503" y="178" text-anchor="middle" dominant-baseline="central" font-family="sans-serif" font-size="12" fill="#4A1B0C">SCARED</text>
</g>

<g>
  <rect x="526" y="160" width="42" height="36" rx="4" fill="#FAEEDA" stroke="#854F0B" stroke-width="0.5"/>
  <text x="547" y="178" text-anchor="middle" dominant-baseline="central" font-family="sans-serif" font-size="12" fill="#412402">WAKING</text>
</g>

<g>
  <rect x="570" y="160" width="88" height="36" rx="4" fill="#E1F5EE" stroke="#0F6E56" stroke-width="0.5"/>
  <text x="614" y="178" text-anchor="middle" dominant-baseline="central" font-family="sans-serif" font-size="12" fill="#04342C">SCANNING</text>
</g>

<line x1="80" y1="156" x2="80" y2="200" stroke="#D3D1C7" stroke-width="0.5"/>
<line x1="134" y1="156" x2="134" y2="200" stroke="#D3D1C7" stroke-width="0.5"/>
<line x1="204" y1="156" x2="204" y2="200" stroke="#D3D1C7" stroke-width="0.5"/>
<line x1="306" y1="156" x2="306" y2="200" stroke="#D3D1C7" stroke-width="0.5"/>
<line x1="368" y1="156" x2="368" y2="200" stroke="#D3D1C7" stroke-width="0.5"/>
<line x1="432" y1="156" x2="432" y2="200" stroke="#D3D1C7" stroke-width="0.5"/>
<line x1="480" y1="156" x2="480" y2="200" stroke="#D3D1C7" stroke-width="0.5"/>
<line x1="524" y1="156" x2="524" y2="200" stroke="#D3D1C7" stroke-width="0.5"/>
<line x1="568" y1="156" x2="568" y2="200" stroke="#D3D1C7" stroke-width="0.5"/>

<path d="M 82 218 L 82 228 L 133 228 L 133 218" fill="none" stroke="#B4B2A9" stroke-width="0.5"/>
<text x="108" y="240" text-anchor="middle" font-family="sans-serif" font-size="12" fill="#5F5E5A">~3.5s</text>
<text x="108" y="252" text-anchor="middle" font-family="sans-serif" font-size="10" fill="#888780">wakeDelayMs</text>

<path d="M 136 218 L 136 238 L 204 238 L 204 218" fill="none" stroke="#B4B2A9" stroke-width="0.5"/>
<line x1="170" y1="238" x2="170" y2="245" stroke="#B4B2A9" stroke-width="0.5"/>
<text x="170" y="258" text-anchor="middle" font-family="sans-serif" font-size="12" fill="#5F5E5A">scandoze</text>
<text x="170" y="270" text-anchor="middle" font-family="sans-serif" font-size="10" fill="#888780">default 10s</text>

<path d="M 256 148 L 256 132 L 256 118" fill="none" stroke="#63B522" stroke-width="1" marker-end="url(#arrGreen)"/>
<rect x="200" y="110" width="112" height="14" rx="3" fill="#F1EFE8"/>
<text x="256" y="119" text-anchor="middle" font-family="sans-serif" font-size="12" fill="#3B6D11">motion detected  (score &gt; 0.10)</text>

<line x1="280" y1="66" x2="280" y2="58" stroke="#EF9F27" stroke-width="1" marker-end="url(#arrAmber)"/>
<text x="280" y="54" text-anchor="middle" font-family="sans-serif" font-size="12" fill="#BA7517">startle spike (500ms)</text>

<path d="M 370 218 L 370 228 L 431 228 L 431 218" fill="none" stroke="#B4B2A9" stroke-width="0.5"/>
<line x1="401" y1="228" x2="401" y2="245" stroke="#B4B2A9" stroke-width="0.5"/>
<text x="401" y="258" text-anchor="middle" font-family="sans-serif" font-size="12" fill="#5F5E5A">dozesleep</text>
<text x="401" y="270" text-anchor="middle" font-family="sans-serif" font-size="10" fill="#888780">default 20s</text>

<path d="M 503 148 L 503 132" fill="none" stroke="#D85A30" stroke-width="1" marker-end="url(#arrCoral)"/>
<rect x="448" y="118" width="110" height="14" rx="3" fill="#F1EFE8"/>
<text x="503" y="127" text-anchor="middle" font-family="sans-serif" font-size="12" fill="#D85A30">camera shift detected</text>

<path d="M 482 218 L 482 258 L 523 258 L 523 218" fill="none" stroke="#B4B2A9" stroke-width="0.5"/>
<line x1="503" y1="258" x2="503" y2="265" stroke="#B4B2A9" stroke-width="0.5"/>
<text x="503" y="278" text-anchor="middle" font-family="sans-serif" font-size="12" fill="#5F5E5A">min 3s</text>
<text x="503" y="290" text-anchor="middle" font-family="sans-serif" font-size="10" fill="#888780">until scene settled</text>
<text x="503" y="302" text-anchor="middle" font-family="sans-serif" font-size="10" fill="#888780">blobs &lt;= 1</text>

<line x1="547" y1="156" x2="547" y2="132" stroke="#888780" stroke-width="0.5" stroke-dasharray="3 2"/>
<rect x="496" y="118" width="102" height="14" rx="3" fill="#F1EFE8"/>
<text x="547" y="127" text-anchor="middle" font-family="sans-serif" font-size="12" fill="#888780">bgreset at 1.5s</text>

<path d="M 340 200 L 340 310" fill="none" stroke="#B4B2A9" stroke-width="0.5" stroke-dasharray="3 2"/>
<rect x="276" y="308" width="128" height="24" rx="4" fill="#F1EFE8" stroke="#D3D1C7" stroke-width="0.5"/>
<text x="340" y="319" text-anchor="middle" font-family="sans-serif" font-size="12" fill="#5F5E5A">blob habit builds up</text>
<text x="340" y="329" text-anchor="middle" font-family="sans-serif" font-size="10" fill="#888780">habit.str / habit.thr</text>

<path d="M 185 200 L 185 310" fill="none" stroke="#B4B2A9" stroke-width="0.5" stroke-dasharray="3 2"/>
<rect x="120" y="308" width="130" height="24" rx="4" fill="#F1EFE8" stroke="#D3D1C7" stroke-width="0.5"/>
<text x="185" y="319" text-anchor="middle" font-family="sans-serif" font-size="12" fill="#5F5E5A">lazy sinusoidal scan</text>
<text x="185" y="329" text-anchor="middle" font-family="sans-serif" font-size="10" fill="#888780">scanPanAmp / scanTiltAmp</text>

<path d="M 69 200 L 69 340" fill="none" stroke="#B4B2A9" stroke-width="0.5" stroke-dasharray="3 2"/>
<rect x="30" y="338" width="120" height="24" rx="4" fill="#F1EFE8" stroke="#D3D1C7" stroke-width="0.5"/>
<text x="90" y="349" text-anchor="middle" font-family="sans-serif" font-size="12" fill="#5F5E5A">bg warmup ~5s</text>
<text x="90" y="359" text-anchor="middle" font-family="sans-serif" font-size="10" fill="#888780">visionBgSettled gated</text>

<rect x="58" y="386" width="12" height="12" rx="2" fill="#D3D1C7"/>
<text x="75" y="395" font-family="sans-serif" font-size="12" fill="#5F5E5A">SLEEPING</text>
<rect x="138" y="386" width="12" height="12" rx="2" fill="#FAC775"/>
<text x="155" y="395" font-family="sans-serif" font-size="12" fill="#5F5E5A">WAKING / DOZING</text>
<rect x="266" y="386" width="12" height="12" rx="2" fill="#5DCAA5"/>
<text x="283" y="395" font-family="sans-serif" font-size="12" fill="#5F5E5A">SCANNING</text>
<rect x="357" y="386" width="12" height="12" rx="2" fill="#97C459"/>
<text x="374" y="395" font-family="sans-serif" font-size="12" fill="#5F5E5A">TRACKING</text>
<rect x="446" y="386" width="12" height="12" rx="2" fill="#AFA9EC"/>
<text x="463" y="395" font-family="sans-serif" font-size="12" fill="#5F5E5A">FOCUS</text>
<rect x="520" y="386" width="12" height="12" rx="2" fill="#F0997B"/>
<text x="537" y="395" font-family="sans-serif" font-size="12" fill="#5F5E5A">SCARED</text>

<rect x="58" y="414" width="600" height="66" rx="6" fill="#F1EFE8" stroke="#D3D1C7" stroke-width="0.5"/>
<text x="72" y="428" font-family="sans-serif" font-size="10" letter-spacing="0.5" fill="#888780">ADJUSTABLE PARAMETERS</text>
<text x="72" y="443" font-family="sans-serif" font-size="12" fill="#5F5E5A">scandoze &lt;s&gt;</text>
<text x="72" y="455" font-family="sans-serif" font-size="10" fill="#888780">scan -&gt; doze  (default 10s)</text>
<text x="72" y="470" font-family="sans-serif" font-size="10" fill="#888780">web UI slider or serial</text>

<text x="220" y="443" font-family="sans-serif" font-size="12" fill="#5F5E5A">dozesleep &lt;s&gt;</text>
<text x="220" y="455" font-family="sans-serif" font-size="10" fill="#888780">doze -&gt; sleep  (default 20s)</text>
<text x="220" y="470" font-family="sans-serif" font-size="10" fill="#888780">web UI slider or serial</text>

<text x="368" y="443" font-family="sans-serif" font-size="12" fill="#5F5E5A">habit.str / habit.thr</text>
<text x="368" y="455" font-family="sans-serif" font-size="10" fill="#888780">how fast static blobs bore eye</text>
<text x="368" y="470" font-family="sans-serif" font-size="10" fill="#888780">serial only: habit.str 0.008</text>

<text x="520" y="443" font-family="sans-serif" font-size="12" fill="#5F5E5A">shift &lt;f&gt;</text>
<text x="520" y="455" font-family="sans-serif" font-size="10" fill="#888780">shift sensitivity (0.45)</text>
<text x="520" y="470" font-family="sans-serif" font-size="10" fill="#888780">web UI slider or serial</text>

</svg>
