<svg width="680" height="580" viewBox="0 0 680 580" xmlns="http://www.w3.org/2000/svg" role="img">
<title>EyeWatcher web UI diagram</title>
<desc>Annotated diagram of the EyeWatcher mobile web interface showing all panels, buttons and their functions</desc>

<rect width="680" height="580" fill="#ffffff"/>

<rect x="180" y="20" width="200" height="530" rx="18" fill="none" stroke="#B4B2A9" stroke-width="1.5"/>
<rect x="184" y="24" width="192" height="522" rx="15" fill="#F1EFE8" stroke="none"/>

<rect x="184" y="24" width="192" height="18" rx="0" fill="#1a3a1a"/>
<text x="280" y="36" text-anchor="middle" fill="#7f7" font-size="9" font-family="sans-serif">Connected to 192.168.4.1</text>

<rect x="184" y="42" width="192" height="28" fill="#ffffff" stroke="none"/>
<text x="196" y="59" fill="#7eb8f7" font-size="11" font-weight="500" font-family="sans-serif">EyeWatcher</text>
<text x="370" y="59" text-anchor="end" fill="#7f7" font-size="8" font-family="sans-serif">TRACKING  fps:11  ar:0.55</text>

<text x="190" y="84" fill="#888780" font-size="8" font-family="sans-serif">MOTION</text>
<text x="285" y="84" fill="#888780" font-size="8" font-family="sans-serif">BLOBS</text>

<rect x="184" y="72" width="94" height="80" fill="#0a0a0a"/>
<ellipse cx="240" cy="112" rx="22" ry="18" fill="#e08020" opacity="0.6"/>
<ellipse cx="220" cy="125" rx="14" ry="10" fill="#ffa040" opacity="0.5"/>
<rect x="284" y="72" width="92" height="80" fill="#0a0a0a"/>
<rect x="300" y="88" width="46" height="44" rx="2" fill="none" stroke="#80ff80" stroke-width="1" opacity="0.8"/>
<line x1="322" y1="108" x2="318" y2="104" stroke="#ff6060" stroke-width="1.5"/>
<line x1="318" y1="104" x2="324" y2="104" stroke="#ff6060" stroke-width="1.5"/>

<rect x="184" y="152" width="192" height="18" fill="#ffffff" stroke="none"/>
<text x="190" y="163" fill="#fa0" font-size="8" font-family="sans-serif">#108 (0.59,0.49) s=0.28</text>

<rect x="184" y="172" width="192" height="38" fill="#E8E6DC" stroke="none"/>
<rect x="188" y="176" width="42" height="14" rx="3" fill="#1e3a5f"/>
<text x="209" y="185" text-anchor="middle" fill="#7eb8f7" font-size="7" font-family="sans-serif">bgreset</text>
<rect x="234" y="176" width="40" height="14" rx="3" fill="#1e3a5f"/>
<text x="254" y="185" text-anchor="middle" fill="#7eb8f7" font-size="7" font-family="sans-serif">blob mode</text>
<rect x="278" y="176" width="36" height="14" rx="3" fill="#1e3a5f"/>
<text x="296" y="185" text-anchor="middle" fill="#7eb8f7" font-size="7" font-family="sans-serif">sal mode</text>
<rect x="318" y="176" width="24" height="14" rx="3" fill="#1e3a5f"/>
<text x="330" y="185" text-anchor="middle" fill="#7eb8f7" font-size="7" font-family="sans-serif">info</text>
<rect x="188" y="194" width="28" height="14" rx="3" fill="#1e3a5f"/>
<text x="202" y="203" text-anchor="middle" fill="#7eb8f7" font-size="7" font-family="sans-serif">blobs</text>
<rect x="220" y="194" width="36" height="14" rx="3" fill="#1e3a5f"/>
<text x="238" y="203" text-anchor="middle" fill="#7eb8f7" font-size="7" font-family="sans-serif">caminfo</text>
<rect x="260" y="194" width="28" height="14" rx="3" fill="#1e3a5f"/>
<text x="274" y="203" text-anchor="middle" fill="#7eb8f7" font-size="7" font-family="sans-serif">home</text>
<rect x="292" y="194" width="28" height="14" rx="3" fill="#1e3a5f"/>
<text x="306" y="203" text-anchor="middle" fill="#7eb8f7" font-size="7" font-family="sans-serif">blink</text>
<rect x="324" y="194" width="28" height="14" rx="3" fill="#5f1e1e"/>
<text x="338" y="203" text-anchor="middle" fill="#f78" font-size="7" font-family="sans-serif">reboot</text>

<rect x="184" y="212" width="192" height="128" fill="#ffffff" stroke="none"/>
<text x="190" y="226" fill="#888780" font-size="8" font-family="sans-serif" letter-spacing="0.5">OUTDOOR TUNING</text>
<text x="190" y="240" fill="#5F5E5A" font-size="7.5" font-family="sans-serif">Motion thr</text>
<rect x="248" y="234" width="90" height="4" rx="2" fill="#D3D1C7"/>
<rect x="248" y="234" width="45" height="4" rx="2" fill="#7eb8f7"/>
<text x="345" y="240" fill="#7eb8f7" font-size="7" font-family="sans-serif">30</text>
<text x="190" y="255" fill="#5F5E5A" font-size="7.5" font-family="sans-serif">BG learn</text>
<rect x="248" y="249" width="90" height="4" rx="2" fill="#D3D1C7"/>
<rect x="248" y="249" width="30" height="4" rx="2" fill="#7eb8f7"/>
<text x="345" y="255" fill="#7eb8f7" font-size="7" font-family="sans-serif">15</text>
<text x="190" y="270" fill="#5F5E5A" font-size="7.5" font-family="sans-serif">Shift detect</text>
<rect x="248" y="264" width="90" height="4" rx="2" fill="#D3D1C7"/>
<rect x="248" y="264" width="36" height="4" rx="2" fill="#7eb8f7"/>
<text x="345" y="270" fill="#7eb8f7" font-size="7" font-family="sans-serif">45%</text>
<text x="190" y="285" fill="#5F5E5A" font-size="7.5" font-family="sans-serif">Min blob size</text>
<rect x="248" y="279" width="90" height="4" rx="2" fill="#D3D1C7"/>
<rect x="248" y="279" width="20" height="4" rx="2" fill="#7eb8f7"/>
<text x="345" y="285" fill="#7eb8f7" font-size="7" font-family="sans-serif">25px</text>
<text x="190" y="300" fill="#5F5E5A" font-size="7.5" font-family="sans-serif">Scan-&gt;Doze</text>
<rect x="248" y="294" width="90" height="4" rx="2" fill="#D3D1C7"/>
<rect x="248" y="294" width="55" height="4" rx="2" fill="#7eb8f7"/>
<text x="345" y="300" fill="#7eb8f7" font-size="7" font-family="sans-serif">10s</text>
<text x="190" y="315" fill="#5F5E5A" font-size="7.5" font-family="sans-serif">Doze-&gt;Sleep</text>
<rect x="248" y="309" width="90" height="4" rx="2" fill="#D3D1C7"/>
<rect x="248" y="309" width="68" height="4" rx="2" fill="#7eb8f7"/>
<text x="345" y="315" fill="#7eb8f7" font-size="7" font-family="sans-serif">20s</text>
<text x="190" y="330" fill="#5F5E5A" font-size="7.5" font-family="sans-serif">Habit strength</text>
<rect x="248" y="324" width="90" height="4" rx="2" fill="#D3D1C7"/>
<rect x="248" y="324" width="14" height="4" rx="2" fill="#7eb8f7"/>
<text x="345" y="330" fill="#7eb8f7" font-size="7" font-family="sans-serif">8</text>

<rect x="184" y="342" width="192" height="22" fill="#F1EFE8" stroke="none"/>
<rect x="188" y="345" width="130" height="16" rx="3" fill="#ffffff" stroke="#D3D1C7" stroke-width="0.5"/>
<text x="194" y="355" fill="#B4B2A9" font-size="7" font-family="sans-serif">command...</text>
<rect x="322" y="345" width="30" height="16" rx="3" fill="#1e3a1e"/>
<text x="337" y="355" text-anchor="middle" fill="#7ef77e" font-size="7" font-family="sans-serif">Send</text>

<rect x="184" y="366" width="192" height="76" fill="#0a0a0a" stroke="none"/>
<text x="190" y="378" fill="#7eb8f7" font-size="7" font-family="sans-serif">[State] SCANNING -&gt; TRACKING</text>
<text x="190" y="390" fill="#888" font-size="7" font-family="sans-serif">[Gaze] Blob3  0.32,0.4 -&gt; 0.68,0.21</text>
<text x="190" y="402" fill="#888" font-size="7" font-family="sans-serif">[Blink] start  state=SCANNING</text>
<text x="190" y="414" fill="#888" font-size="7" font-family="sans-serif">[Eye] TRACKING  ar=0.55  blobs=2</text>
<text x="190" y="426" fill="#888" font-size="7" font-family="sans-serif">&gt; bgreset</text>
<text x="190" y="438" fill="#888" font-size="7" font-family="sans-serif">[BlobTracker] Background reset</text>

<rect x="184" y="442" width="192" height="2" fill="#D3D1C7" stroke="none"/>
<rect x="184" y="444" width="192" height="102" rx="0" fill="#F1EFE8" stroke="none"/>
<text x="280" y="480" text-anchor="middle" fill="#888780" font-size="8" font-family="sans-serif">192.168.4.1</text>
<text x="357" y="480" text-anchor="end" fill="#5F5E5A" font-size="8" font-family="sans-serif">Cancel</text>

<line x1="376" y1="33" x2="430" y2="33" stroke="#B4B2A9" stroke-width="0.5" stroke-dasharray="3 2"/>
<text x="434" y="37" fill="#5F5E5A" font-size="12" font-family="sans-serif">Connection status</text>

<line x1="376" y1="56" x2="430" y2="56" stroke="#B4B2A9" stroke-width="0.5" stroke-dasharray="3 2"/>
<text x="434" y="60" fill="#5F5E5A" font-size="12" font-family="sans-serif">State / fps / pan / tilt / mA</text>

<line x1="376" y1="112" x2="430" y2="85" stroke="#B4B2A9" stroke-width="0.5" stroke-dasharray="3 2"/>
<text x="434" y="81" fill="#5F5E5A" font-size="12" font-family="sans-serif">Motion mask canvas</text>
<text x="434" y="93" fill="#5F5E5A" font-size="12" font-family="sans-serif">(blob map right)</text>
<text x="434" y="105" fill="#888780" font-size="10" font-family="sans-serif">updates 3s / on request</text>

<line x1="376" y1="161" x2="430" y2="145" stroke="#B4B2A9" stroke-width="0.5" stroke-dasharray="3 2"/>
<text x="434" y="149" fill="#5F5E5A" font-size="12" font-family="sans-serif">Active blob list</text>
<text x="434" y="161" fill="#888780" font-size="10" font-family="sans-serif">id / position / score</text>

<line x1="376" y1="195" x2="430" y2="185" stroke="#B4B2A9" stroke-width="0.5" stroke-dasharray="3 2"/>
<text x="434" y="181" fill="#5F5E5A" font-size="12" font-family="sans-serif">Quick action buttons</text>
<text x="434" y="193" fill="#888780" font-size="10" font-family="sans-serif">same as serial commands</text>

<line x1="376" y1="276" x2="430" y2="250" stroke="#B4B2A9" stroke-width="0.5" stroke-dasharray="3 2"/>
<text x="434" y="234" fill="#5F5E5A" font-size="12" font-family="sans-serif">Outdoor tuning sliders</text>
<text x="434" y="246" fill="#888780" font-size="10" font-family="sans-serif">all take effect live</text>
<text x="434" y="258" fill="#888780" font-size="10" font-family="sans-serif">no reboot needed</text>

<line x1="376" y1="354" x2="430" y2="354" stroke="#B4B2A9" stroke-width="0.5" stroke-dasharray="3 2"/>
<text x="434" y="358" fill="#5F5E5A" font-size="12" font-family="sans-serif">Any serial command</text>

<line x1="376" y1="404" x2="430" y2="404" stroke="#B4B2A9" stroke-width="0.5" stroke-dasharray="3 2"/>
<text x="434" y="396" fill="#5F5E5A" font-size="12" font-family="sans-serif">Scrolling log</text>
<text x="434" y="408" fill="#888780" font-size="10" font-family="sans-serif">state changes + events</text>

<line x1="184" y1="183" x2="148" y2="183" stroke="#B4B2A9" stroke-width="0.5" stroke-dasharray="3 2"/>
<text x="144" y="179" text-anchor="end" fill="#5F5E5A" font-size="12" font-family="sans-serif">Switch pipeline</text>
<text x="144" y="191" text-anchor="end" fill="#888780" font-size="10" font-family="sans-serif">blob or saliency</text>

<line x1="184" y1="347" x2="148" y2="347" stroke="#B4B2A9" stroke-width="0.5" stroke-dasharray="3 2"/>
<text x="144" y="343" text-anchor="end" fill="#5F5E5A" font-size="12" font-family="sans-serif">Type any command</text>
<text x="144" y="355" text-anchor="end" fill="#888780" font-size="10" font-family="sans-serif">e.g. bgt 35, campan 0.5</text>

</svg>
